<svg id="Calque_2" data-name="Calque 2" xmlns="http://www.w3.org/2000/svg" viewBox="0 0 171.52 55.63"><defs><style>.cls-1,.cls-2,.cls-3{fill:#fff;}.cls-1,.cls-3{stroke:#fff;}.cls-1{stroke-miterlimit:10;}</style></defs><path class="cls-1" d="M32.68,43.87v9.94S32.27,57.3,39.4,60a33.84,33.84,0,0,0,10.26,1.88l4,.06s7.45-.3,11.72-2.39c0,0,5.68-2.19,5.68-5.83v-9.9l-19,5.91h-.48Z" transform="translate(-18.13 -17.32)"/><polygon class="cls-1" points="1.49 19.68 33.69 7.29 65.68 19.68 33.69 30.29 1.49 19.68"/><path class="cls-1" d="M29.92,38.42l-.62.13a3.12,3.12,0,0,0-1.84,1.28h0a1,1,0,0,0-.13.22c-.42.94-3.21,7.4-3.86,11.42a16.7,16.7,0,0,0-.1,3.48s.51.72,3.12.82A6,6,0,0,0,29.32,55l.91-14.85,4.13-1.22,15.88-4.1a1,1,0,0,0,.57-1.52l-.09-.12a.59.59,0,0,0-.26-.14,1.59,1.59,0,0,0-.94,0Z" transform="translate(-18.13 -17.32)"/><path class="cls-2" d="M114.05,44.34q0,1.35,3.66,7.85c2.44,4.33,3.65,6.53,3.65,6.58,0,.53-.6.8-1.82.8a4.21,4.21,0,0,1-3.19-1.49,59.31,59.31,0,0,1-3.4-5.46,30.41,30.41,0,0,0-4.13-6,6.35,6.35,0,0,0-4.26-1.15c-1.21,0-2,.38-2.27,1.12a21,21,0,0,0-.68,5.19,35.23,35.23,0,0,1-.52,5.19q-.65,2.46-2.52,2.46c-1.26,0-2-.46-2.15-1.36-.06-.29-.08-3.29-.08-9V36.73c0-1,0-2.24-.08-3.68l0-.72-.08-1.42,0-.69c0-.92-.05-1.4-.05-1.41v-.67q0-4.18,1.79-5t8.72-.82h.78l.77,0q5.87,0,8.9,2.7a9.56,9.56,0,0,1,3,7.55,12,12,0,0,1-3.66,8.62C114.84,42.79,114.05,43.84,114.05,44.34Zm-8.48-3.45a9.4,9.4,0,0,0,6.64-2.17,7.39,7.39,0,0,0,2.35-5.7v-.26l0-.27A5.92,5.92,0,0,0,113,28.3a5.17,5.17,0,0,0-4-1.65l-.51-.06h-1.73a9.67,9.67,0,0,0-3.92.56,2.07,2.07,0,0,0-1.12,2c-.07.61-.11,1-.11,1.2l-.05,1.47v.75l0,.24v1.25l0,.75v.5l0,.78v.48l0,1v.75a3.43,3.43,0,0,0,.43,2.11c.28.32,1,.48,2.11.48h.9A5.23,5.23,0,0,1,105.57,40.89Z" transform="translate(-18.13 -17.32)"/><path class="cls-2" d="M138.28,60.58h-.61a12.36,12.36,0,0,1-4.91-1A10.15,10.15,0,0,1,127,53.19a16.43,16.43,0,0,1-.83-5.12v-1.2a15.6,15.6,0,0,1,1-5.36,11.55,11.55,0,0,1,6.86-7.15,13.44,13.44,0,0,1,4.59-.8h.59a8.89,8.89,0,0,1,6.3,2.33,8.28,8.28,0,0,1,2.5,6.36v.54a4.32,4.32,0,0,1-1.81,4q-1.39.89-6.36,1.6a57.3,57.3,0,0,0-6,1c-1.07.34-1.6.83-1.6,1.47a4.79,4.79,0,0,0,2.43,4.06,8.16,8.16,0,0,0,4.4.93,15.77,15.77,0,0,0,3.83-.73,17.45,17.45,0,0,1,3.27-.74,1.4,1.4,0,0,1,1.57,1.6q0,1.6-3.05,3.1A14.55,14.55,0,0,1,138.28,60.58Zm1.42-16a5.45,5.45,0,0,0,2.93-.77,1.91,1.91,0,0,0,.67-1.71V42a4.67,4.67,0,0,0-1.18-3.24,4.22,4.22,0,0,0-3.33-1.32h-.32A6.58,6.58,0,0,0,134,39.21a5.88,5.88,0,0,0-2,4.59v.46c0,.55.42.82,1.25.82l.27.06h1l.16,0,1.47-.11.18,0,1-.08.43-.06,1-.13A8.73,8.73,0,0,1,139.7,44.6Z" transform="translate(-18.13 -17.32)"/><path class="cls-3" d="M156.34,21.58c0-1.53.85-2.49,2.57-2.89q3.75-.87,14.5-.87H179q5.73,0,8.34,1c1.21.47,1.82,1.61,1.82,3.4q0,5.17-17.52,47.39-1.14,2.81-3.4,2.81a5.73,5.73,0,0,1-3.2-.67,2.77,2.77,0,0,1-.95-2.41q0-3,6.45-21a94.47,94.47,0,0,1,5.31-11.82q3.47-6.6,3.46-8.6a2.6,2.6,0,0,0-2.17-2.63,30.87,30.87,0,0,0-7.55-.63l-9.29.36C157.65,25,156.34,23.87,156.34,21.58Z" transform="translate(-18.13 -17.32)"/></svg>